<?xml version="1.0" standalone="no"?>
<!DOCTYPE svg PUBLIC "-//W3C//DTD SVG 20010904//EN"
 "http://www.w3.org/TR/2001/REC-SVG-20010904/DTD/svg10.dtd">
<svg version="1.0" xmlns="http://www.w3.org/2000/svg"
 width="608.000000pt" height="508.000000pt" viewBox="0 0 608.000000 508.000000"
 preserveAspectRatio="xMidYMid meet">

<g transform="translate(0.000000,508.000000) scale(0.100000,-0.100000)"
fill="#000000" stroke="none">
<path d="M1007 5070 c5 -8 65 -86 132 -173 147 -190 172 -240 179 -357 4 -74
1 -92 -19 -135 -13 -28 -50 -78 -84 -111 -54 -55 -83 -72 -269 -163 -114 -56
-221 -112 -238 -124 -45 -34 -88 -105 -88 -147 0 -85 58 -194 169 -320 l66
-74 -48 28 c-68 39 -152 66 -207 66 -88 0 -135 -25 -236 -124 -121 -120 -159
-141 -338 -181 l-29 -6 44 -30 c210 -143 486 -144 789 -2 116 54 203 112 312
208 315 276 493 621 458 888 -17 133 -43 204 -114 307 -57 85 -84 110 -461
439 -16 14 -24 19 -18 11z m452 -568 c41 -81 71 -199 71 -274 0 -160 -81 -375
-208 -553 -66 -93 -213 -262 -263 -305 l-51 -43 -46 53 c-245 277 -329 453
-257 538 30 36 123 85 270 144 147 59 241 115 313 188 82 81 114 150 120 251
3 44 6 79 8 79 2 0 21 -35 43 -78z m-738 -1028 c97 -29 286 -134 274 -153 -17
-28 -313 -108 -457 -123 -103 -11 -258 -2 -289 17 -5 4 10 21 33 38 24 17 79
69 123 115 44 47 98 93 120 103 50 23 124 24 196 3z"/>
<path d="M1635 3989 c-4 -6 -5 -12 -2 -15 2 -3 7 2 10 11 7 17 1 20 -8 4z"/>
<path d="M1594 3898 c-16 -34 -53 -101 -82 -148 -179 -285 -438 -505 -763
-646 -60 -26 -107 -49 -106 -51 2 -1 36 7 77 18 395 112 741 431 887 818 13
35 22 65 20 67 -2 2 -17 -24 -33 -58z"/>
<path d="M3189 3615 c-222 -42 -419 -139 -582 -285 -81 -73 -90 -99 -13 -41
140 106 335 197 511 237 111 26 385 26 503 1 338 -74 694 -286 1007 -601 277
-279 628 -800 729 -1082 47 -131 58 -193 54 -294 -5 -141 -49 -215 -158 -269
-69 -35 -117 -47 -255 -66 -146 -19 -214 -38 -313 -85 -110 -52 -153 -83 -272
-195 -56 -52 -111 -97 -122 -101 -30 -9 -54 23 -68 92 -19 93 1 157 103 319
163 259 237 509 257 865 21 362 37 453 91 511 23 25 35 29 81 29 52 1 52 1 27
15 -15 8 -44 17 -65 20 -96 14 -157 -79 -210 -320 -104 -477 -135 -581 -224
-760 -38 -78 -91 -162 -151 -240 -144 -190 -183 -283 -182 -445 0 -183 72
-337 190 -407 36 -21 53 -25 98 -21 76 6 111 34 217 171 133 173 250 251 439
297 46 11 129 30 184 44 271 65 455 186 539 358 65 130 60 199 -25 404 -181
436 -498 901 -827 1215 -342 326 -707 537 -1077 619 -122 27 -380 35 -486 15z"/>
<path d="M2596 3230 c-45 -23 -106 -68 -106 -78 0 -14 58 -42 88 -42 16 0 47
12 68 26 21 15 32 19 24 9 -51 -61 -170 -78 -330 -45 -136 27 -319 37 -401 21
-170 -34 -279 -159 -279 -322 0 -48 -7 -73 -36 -130 -49 -98 -102 -261 -110
-339 -9 -92 9 -169 53 -227 20 -26 42 -72 50 -102 35 -133 133 -292 239 -389
86 -79 187 -136 312 -178 147 -49 434 -190 567 -278 157 -105 244 -206 245
-286 0 -20 2 -22 10 -10 30 46 -14 145 -107 242 -124 128 -265 223 -568 380
-210 110 -335 194 -373 250 -48 73 -10 108 117 108 84 0 165 -19 269 -64 112
-48 156 -80 303 -221 127 -121 225 -190 287 -201 26 -5 38 -2 58 17 27 25 29
37 13 92 -25 90 -92 133 -464 297 -88 39 -196 92 -239 118 -93 55 -184 140
-214 198 -28 56 -45 157 -37 224 14 113 55 181 187 308 163 158 175 216 71
347 l-39 50 130 0 c178 0 250 25 303 104 69 102 15 174 -91 121z"/>
<path d="M3417 3015 c-42 -16 -119 -69 -156 -109 l-23 -25 36 -49 c44 -61 87
-94 172 -134 63 -29 247 -69 260 -55 8 8 -24 103 -54 160 -54 100 -164 168
-246 151 -29 -6 -30 -5 -14 12 9 9 47 28 85 40 l68 23 -45 0 c-25 0 -62 -7
-83 -14z"/>
<path d="M2935 1834 c120 -64 235 -166 270 -239 48 -103 25 -205 -67 -297 -76
-76 -39 -57 49 25 72 67 113 139 113 197 -1 97 -101 201 -275 286 -114 55
-181 76 -90 28z"/>
<path d="M2744 1013 c52 -72 121 -224 147 -323 19 -68 23 -111 23 -220 0 -149
-20 -254 -75 -384 -38 -89 -37 -93 8 -21 53 87 111 225 133 319 24 97 26 238
5 316 -33 125 -122 252 -230 329 l-47 34 36 -50z"/>
<path d="M5166 964 c-4 -11 -10 -49 -13 -86 -18 -211 103 -395 337 -513 129
-65 362 -127 526 -139 79 -6 73 -4 -106 44 -131 35 -289 107 -382 173 -72 52
-179 160 -227 230 -45 66 -91 167 -111 244 -12 49 -19 61 -24 47z"/>
</g>
</svg>
